<mxfile host="app.diagrams.net" modified="2022-07-19T06:54:30.045Z" agent="5.0 (Macintosh)" etag="qaL3Gcq9IV5whNxfNVDS" version="16.6.2" type="github">
  <diagram id="U8BS91Y_MRsQbwHD1So6" name="Page-1">
    <mxGraphModel dx="3634" dy="809" grid="1" gridSize="10" guides="1" tooltips="1" connect="1" arrows="1" fold="1" page="1" pageScale="1" pageWidth="1200" pageHeight="1920" math="0" shadow="0">
      <root>
        <mxCell id="0" />
        <mxCell id="1" parent="0" />
        <mxCell id="0Mfr6jbFzVe-f7cG6Vl7-1" value="JavaWordCount" style="rounded=1;html=1;fontSize=14;whiteSpace=wrap;" vertex="1" parent="1">
          <mxGeometry x="-1840" y="80" width="120" height="40" as="geometry" />
        </mxCell>
        <mxCell id="0Mfr6jbFzVe-f7cG6Vl7-2" value="" style="endArrow=none;dashed=1;html=1;rounded=0;entryX=0.5;entryY=1;entryDx=0;entryDy=0;startArrow=none;" edge="1" parent="1">
          <mxGeometry width="50" height="50" relative="1" as="geometry">
            <mxPoint x="-1780" y="1160" as="sourcePoint" />
            <mxPoint x="-1780" y="120" as="targetPoint" />
          </mxGeometry>
        </mxCell>
        <mxCell id="0Mfr6jbFzVe-f7cG6Vl7-5" value="JavaWordCount" style="rounded=1;html=1;fontSize=14;whiteSpace=wrap;" vertex="1" parent="1">
          <mxGeometry x="-1680" y="80" width="120" height="40" as="geometry" />
        </mxCell>
        <mxCell id="0Mfr6jbFzVe-f7cG6Vl7-6" value="" style="endArrow=none;dashed=1;html=1;rounded=0;entryX=0.5;entryY=1;entryDx=0;entryDy=0;startArrow=none;" edge="1" parent="1">
          <mxGeometry width="50" height="50" relative="1" as="geometry">
            <mxPoint x="-1620" y="1160" as="sourcePoint" />
            <mxPoint x="-1620" y="120" as="targetPoint" />
          </mxGeometry>
        </mxCell>
        <mxCell id="0Mfr6jbFzVe-f7cG6Vl7-7" value="JavaWordCount" style="rounded=1;html=1;fontSize=14;whiteSpace=wrap;" vertex="1" parent="1">
          <mxGeometry x="-1520" y="80" width="120" height="40" as="geometry" />
        </mxCell>
        <mxCell id="0Mfr6jbFzVe-f7cG6Vl7-8" value="" style="endArrow=none;dashed=1;html=1;rounded=0;entryX=0.5;entryY=1;entryDx=0;entryDy=0;startArrow=none;" edge="1" parent="1">
          <mxGeometry width="50" height="50" relative="1" as="geometry">
            <mxPoint x="-1460" y="1160" as="sourcePoint" />
            <mxPoint x="-1460" y="120" as="targetPoint" />
          </mxGeometry>
        </mxCell>
        <mxCell id="0Mfr6jbFzVe-f7cG6Vl7-9" value="JavaWordCount" style="rounded=1;html=1;fontSize=14;whiteSpace=wrap;" vertex="1" parent="1">
          <mxGeometry x="-1360" y="80" width="120" height="40" as="geometry" />
        </mxCell>
        <mxCell id="0Mfr6jbFzVe-f7cG6Vl7-10" value="" style="endArrow=none;dashed=1;html=1;rounded=0;entryX=0.5;entryY=1;entryDx=0;entryDy=0;startArrow=none;" edge="1" parent="1">
          <mxGeometry width="50" height="50" relative="1" as="geometry">
            <mxPoint x="-1300" y="1160" as="sourcePoint" />
            <mxPoint x="-1300" y="120" as="targetPoint" />
          </mxGeometry>
        </mxCell>
        <mxCell id="0Mfr6jbFzVe-f7cG6Vl7-11" value="JavaWordCount" style="rounded=1;html=1;fontSize=14;whiteSpace=wrap;" vertex="1" parent="1">
          <mxGeometry x="-1200" y="80" width="120" height="40" as="geometry" />
        </mxCell>
        <mxCell id="0Mfr6jbFzVe-f7cG6Vl7-12" value="" style="endArrow=none;dashed=1;html=1;rounded=0;entryX=0.5;entryY=1;entryDx=0;entryDy=0;startArrow=none;" edge="1" parent="1">
          <mxGeometry width="50" height="50" relative="1" as="geometry">
            <mxPoint x="-1140" y="1160" as="sourcePoint" />
            <mxPoint x="-1140" y="120" as="targetPoint" />
          </mxGeometry>
        </mxCell>
        <mxCell id="0Mfr6jbFzVe-f7cG6Vl7-13" value="JavaWordCount" style="rounded=1;html=1;fontSize=14;whiteSpace=wrap;" vertex="1" parent="1">
          <mxGeometry x="-1040" y="80" width="120" height="40" as="geometry" />
        </mxCell>
        <mxCell id="0Mfr6jbFzVe-f7cG6Vl7-14" value="" style="endArrow=none;dashed=1;html=1;rounded=0;entryX=0.5;entryY=1;entryDx=0;entryDy=0;startArrow=none;" edge="1" parent="1">
          <mxGeometry width="50" height="50" relative="1" as="geometry">
            <mxPoint x="-980" y="1160" as="sourcePoint" />
            <mxPoint x="-980" y="120" as="targetPoint" />
          </mxGeometry>
        </mxCell>
        <mxCell id="0Mfr6jbFzVe-f7cG6Vl7-15" value="JavaWordCount" style="rounded=1;html=1;fontSize=14;whiteSpace=wrap;" vertex="1" parent="1">
          <mxGeometry x="-880" y="80" width="120" height="40" as="geometry" />
        </mxCell>
        <mxCell id="0Mfr6jbFzVe-f7cG6Vl7-16" value="" style="endArrow=none;dashed=1;html=1;rounded=0;entryX=0.5;entryY=1;entryDx=0;entryDy=0;startArrow=none;" edge="1" parent="1">
          <mxGeometry width="50" height="50" relative="1" as="geometry">
            <mxPoint x="-820" y="1160" as="sourcePoint" />
            <mxPoint x="-820" y="120" as="targetPoint" />
          </mxGeometry>
        </mxCell>
        <mxCell id="0Mfr6jbFzVe-f7cG6Vl7-17" value="JavaWordCount" style="rounded=1;html=1;fontSize=14;whiteSpace=wrap;" vertex="1" parent="1">
          <mxGeometry x="-720" y="80" width="120" height="40" as="geometry" />
        </mxCell>
        <mxCell id="0Mfr6jbFzVe-f7cG6Vl7-18" value="" style="endArrow=none;dashed=1;html=1;rounded=0;entryX=0.5;entryY=1;entryDx=0;entryDy=0;startArrow=none;" edge="1" parent="1">
          <mxGeometry width="50" height="50" relative="1" as="geometry">
            <mxPoint x="-660" y="1160" as="sourcePoint" />
            <mxPoint x="-660" y="120" as="targetPoint" />
          </mxGeometry>
        </mxCell>
        <mxCell id="0Mfr6jbFzVe-f7cG6Vl7-19" value="JavaWordCount" style="rounded=1;html=1;fontSize=14;whiteSpace=wrap;" vertex="1" parent="1">
          <mxGeometry x="-560" y="80" width="120" height="40" as="geometry" />
        </mxCell>
        <mxCell id="0Mfr6jbFzVe-f7cG6Vl7-20" value="" style="endArrow=none;dashed=1;html=1;rounded=0;entryX=0.5;entryY=1;entryDx=0;entryDy=0;startArrow=none;" edge="1" parent="1">
          <mxGeometry width="50" height="50" relative="1" as="geometry">
            <mxPoint x="-500" y="1160" as="sourcePoint" />
            <mxPoint x="-500" y="120" as="targetPoint" />
          </mxGeometry>
        </mxCell>
        <mxCell id="0Mfr6jbFzVe-f7cG6Vl7-21" value="JavaWordCount" style="rounded=1;html=1;fontSize=14;whiteSpace=wrap;" vertex="1" parent="1">
          <mxGeometry x="-400" y="80" width="120" height="40" as="geometry" />
        </mxCell>
        <mxCell id="0Mfr6jbFzVe-f7cG6Vl7-22" value="" style="endArrow=none;dashed=1;html=1;rounded=0;entryX=0.5;entryY=1;entryDx=0;entryDy=0;startArrow=none;" edge="1" parent="1">
          <mxGeometry width="50" height="50" relative="1" as="geometry">
            <mxPoint x="-340" y="1160" as="sourcePoint" />
            <mxPoint x="-340" y="120" as="targetPoint" />
          </mxGeometry>
        </mxCell>
        <mxCell id="0Mfr6jbFzVe-f7cG6Vl7-23" value="JavaWordCount" style="rounded=1;html=1;fontSize=14;whiteSpace=wrap;" vertex="1" parent="1">
          <mxGeometry x="-240" y="80" width="120" height="40" as="geometry" />
        </mxCell>
        <mxCell id="0Mfr6jbFzVe-f7cG6Vl7-24" value="" style="endArrow=none;dashed=1;html=1;rounded=0;entryX=0.5;entryY=1;entryDx=0;entryDy=0;startArrow=none;" edge="1" parent="1">
          <mxGeometry width="50" height="50" relative="1" as="geometry">
            <mxPoint x="-180" y="1160" as="sourcePoint" />
            <mxPoint x="-180" y="120" as="targetPoint" />
          </mxGeometry>
        </mxCell>
      </root>
    </mxGraphModel>
  </diagram>
</mxfile>
